<?xml version="1.0" encoding="utf-8"?><svg xmlns="http://www.w3.org/2000/svg" xmlns:xlink="http://www.w3.org/1999/xlink"><symbol preserveAspectRatio="xMidYMid" viewBox="0 0 270.56 315.16" id="apple" xmlns="http://www.w3.org/2000/svg"><path d="M213.803 167.03c.442 47.58 41.74 63.413 42.197 63.615-.35 1.116-6.599 22.563-21.757 44.716-13.104 19.153-26.705 38.235-48.13 38.63-21.05.388-27.82-12.483-51.888-12.483-24.061 0-31.582 12.088-51.51 12.871-20.68.783-36.428-20.71-49.64-39.793-27-39.033-47.633-110.3-19.928-158.406 13.763-23.89 38.36-39.017 65.056-39.405 20.307-.387 39.475 13.662 51.889 13.662 12.406 0 35.699-16.895 60.186-14.414 10.25.427 39.026 4.14 57.503 31.186-1.49.923-34.335 20.044-33.978 59.822M174.24 50.199c10.98-13.29 18.369-31.79 16.353-50.199-15.826.636-34.962 10.546-46.314 23.828-10.173 11.763-19.082 30.589-16.678 48.633 17.64 1.365 35.66-8.964 46.64-22.262"/></symbol><symbol viewBox="0 0 390.25 451.12" id="arrow" xmlns="http://www.w3.org/2000/svg"><path d="M41.373 278.627l160 160c12.496 12.497 32.758 12.497 45.255 0l160-160c12.495-12.497 12.495-32.758 0-45.255-12.497-12.497-32.759-12.497-45.256 0L256 338.745V32c0-17.673-14.327-32-32-32-17.673 0-32 14.327-32 32v306.745L86.627 233.372C80.379 227.124 72.189 224 64 224s-16.379 3.124-22.627 9.372c-12.497 12.497-12.497 32.758 0 45.255z"/></symbol><symbol viewBox="0 0 24 24" id="goog-play" xmlns="http://www.w3.org/2000/svg"><path d="M19.076 10.067l-2.092-1.209-2.521 3.096 2.569 3.16 2.043-1.18c.853-.492 1.321-1.181 1.321-1.935s-.467-1.439-1.32-1.932zM5.522 21.351l7.651-9.396-7.554-9.294c-.024-.001-.049-.012-.073-.012-1.163 0-1.944.945-1.944 2.353v14c.002 1.395.773 2.335 1.92 2.349zM16.105 8.354L7.497 3.382l6.322 7.779zm-2.287 4.392l-6.489 7.971 8.825-5.097z"/></symbol><symbol viewBox="0 0 131.39 86.9" id="master-card" xmlns="http://www.w3.org/2000/svg"><defs><style>.de{fill:#f79e1b}</style></defs><path fill="#ff5f00" d="M48.37 15.14h34.66v56.61H48.37z"/><path d="M51.94 43.45a35.94 35.94 0 0113.75-28.3 36 36 0 100 56.61 35.94 35.94 0 01-13.75-28.31z" fill="#eb001b"/><path class="de" d="M120.5 65.76V64.6h.5v-.24h-1.19v.24h.47v1.16zm2.31 0v-1.4h-.36l-.42 1-.42-1h-.36v1.4h.26V64.7l.39.91h.27l.39-.91v1.06zm1.13-22.31a36 36 0 01-58.25 28.3 36 36 0 000-56.61 36 36 0 0158.25 28.3z"/></symbol><symbol xml:space="preserve" id="mir-pay" viewBox="0 0 48.5 14" xmlns="http://www.w3.org/2000/svg"><style id="estyle3" type="text/css">.est1{fill-rule:evenodd;clip-rule:evenodd;fill:#4db45f}</style><linearGradient y2="3" x2="48.5" y1="3" x1="34.174" gradientUnits="userSpaceOnUse" id="eSVGID_1_"><stop id="estop6" offset="0" stop-color="#00b4e6"/><stop id="estop8" offset="1" stop-color="#088ccb"/></linearGradient><path id="epath10" d="M43.5 0h-9.3c.5 3.1 3.5 6 6.8 6h7.4c.1-.3.1-.7.1-1 0-2.8-2.2-5-5-5z" fill-rule="evenodd" clip-rule="evenodd" fill="url(#eSVGID_1_)"/><path id="epath12" d="M35 6.5V14h4.5v-4h4c2.2 0 4.1-1.5 4.7-3.5z" class="est1" clip-rule="evenodd" fill="#4db45f" fill-rule="evenodd"/><path id="epath14" d="M19 0v14h4s1 0 1.5-1L28 6h.5v8H33V0h-4s-1 .1-1.5 1L24 8h-.5V0H19z" class="est1"/><path id="epath16" d="M0 14V0h4.5s1.3 0 2 2c1.8 5.3 2 6 2 6s.4-1.3 2-6c.7-2 2-2 2-2H17v14h-4.5V6.5H12L9.5 14h-2L5 6.5h-.5V14H0z" class="est1"/></symbol><symbol viewBox="0 0 25.64 25.64" id="retwit" xmlns="http://www.w3.org/2000/svg"><path d="M10.385 1.499a.78.78 0 00-.848.168L.228 8.98a.777.777 0 000 1.1l9.309 7.278a.772.772 0 00.848.17.764.764 0 00.465-.719V12.45c9.955 0 14.309 2.808 13.646 11.751C28.713 9.893 20.619 6.659 10.85 6.659V2.217a.764.764 0 00-.465-.718z" fill="#030104"/></symbol><symbol viewBox="0 0 32 32" id="search" xmlns="http://www.w3.org/2000/svg"><path d="M27.414 24.586l-5.077-5.077A9.932 9.932 0 0024 14c0-5.514-4.486-10-10-10S4 8.486 4 14s4.486 10 10 10a9.932 9.932 0 005.509-1.663l5.077 5.077a2 2 0 102.828-2.828zM7 14c0-3.86 3.14-7 7-7s7 3.14 7 7-3.14 7-7 7-7-3.14-7-7z"/></symbol><symbol viewBox="0 0 504 504" id="visa" xmlns="http://www.w3.org/2000/svg"><path fill="#3c58bf" d="M184.8 324.4l25.6-144h40l-24.8 144z"/><path fill="#293688" d="M184.8 324.4l32.8-144h32.8l-24.8 144z"/><path d="M370.4 182c-8-3.2-20.8-6.4-36.8-6.4-40 0-68.8 20-68.8 48.8 0 21.6 20 32.8 36 40s20.8 12 20.8 18.4c0 9.6-12.8 14.4-24 14.4-16 0-24.8-2.4-38.4-8l-5.6-2.4-5.6 32.8c9.6 4 27.2 8 45.6 8 42.4 0 70.4-20 70.4-50.4 0-16.8-10.4-29.6-34.4-40-14.4-7.2-23.2-11.2-23.2-18.4 0-6.4 7.2-12.8 23.2-12.8 13.6 0 23.2 2.4 30.4 5.6l4 1.6 6.4-31.2z" fill="#3c58bf"/><path d="M370.4 182c-8-3.2-20.8-6.4-36.8-6.4-40 0-61.6 20-61.6 48.8 0 21.6 12.8 32.8 28.8 40s20.8 12 20.8 18.4c0 9.6-12.8 14.4-24 14.4-16 0-24.8-2.4-38.4-8l-5.6-2.4-5.6 32.8c9.6 4 27.2 8 45.6 8 42.4 0 70.4-20 70.4-50.4 0-16.8-10.4-29.6-34.4-40-14.4-7.2-23.2-11.2-23.2-18.4 0-6.4 7.2-12.8 23.2-12.8 13.6 0 23.2 2.4 30.4 5.6l4 1.6 6.4-31.2z" fill="#293688"/><path d="M439.2 180.4c-9.6 0-16.8.8-20.8 10.4l-60 133.6h43.2l8-24h51.2l4.8 24H504l-33.6-144h-31.2zm-18.4 96c2.4-7.2 16-42.4 16-42.4s3.2-8.8 5.6-14.4l2.4 13.6s8 36 9.6 44h-33.6v-.8z" fill="#3c58bf"/><path d="M448.8 180.4c-9.6 0-16.8.8-20.8 10.4l-69.6 133.6h43.2l8-24h51.2l4.8 24H504l-33.6-144h-21.6zm-28 96c3.2-8 16-42.4 16-42.4s3.2-8.8 5.6-14.4l2.4 13.6s8 36 9.6 44h-33.6v-.8z" fill="#293688"/><path d="M111.2 281.2l-4-20.8c-7.2-24-30.4-50.4-56-63.2l36 128h43.2l64.8-144H152l-40.8 100z" fill="#3c58bf"/><path d="M111.2 281.2l-4-20.8c-7.2-24-30.4-50.4-56-63.2l36 128h43.2l64.8-144H160l-48.8 100z" fill="#293688"/><path d="M0 180.4l7.2 1.6c51.2 12 86.4 42.4 100 78.4l-14.4-68c-2.4-9.6-9.6-12-18.4-12H0z" fill="#ffbc00"/><path d="M0 180.4c51.2 12 93.6 43.2 107.2 79.2l-13.6-56.8c-2.4-9.6-10.4-15.2-19.2-15.2L0 180.4z" fill="#f7981d"/><path d="M0 180.4c51.2 12 93.6 43.2 107.2 79.2l-9.6-31.2c-2.4-9.6-5.6-19.2-16.8-23.2L0 180.4z" fill="#ed7c00"/><path d="M151.2 276.4L124 249.2l-12.8 30.4-3.2-20c-7.2-24-30.4-50.4-56-63.2l36 128h43.2l20-48zm74.4 48l-34.4-35.2-6.4 35.2zm92-49.6c3.2 3.2 4.8 5.6 4 8.8 0 9.6-12.8 14.4-24 14.4-16 0-24.8-2.4-38.4-8l-5.6-2.4-5.6 32.8c9.6 4 27.2 8 45.6 8 25.6 0 46.4-7.2 58.4-20l-34.4-33.6zm46.4 49.6h37.6l8-24h51.2l4.8 24H504L490.4 266l-48-46.4 2.4 12.8s8 36 9.6 44h-33.6c3.2-8 16-42.4 16-42.4s3.2-8.8 5.6-14.4" fill="#051244"/></symbol></svg>