<?xml version="1.0" encoding="utf-8"?><svg xmlns="http://www.w3.org/2000/svg" xmlns:xlink="http://www.w3.org/1999/xlink"><symbol viewBox="0 0 390.25 451.12" id="arrow" xmlns="http://www.w3.org/2000/svg"><path d="M41.373 278.627l160 160c12.496 12.497 32.758 12.497 45.255 0l160-160c12.495-12.497 12.495-32.758 0-45.255-12.497-12.497-32.759-12.497-45.256 0L256 338.745V32c0-17.673-14.327-32-32-32-17.673 0-32 14.327-32 32v306.745L86.627 233.372C80.379 227.124 72.189 224 64 224s-16.379 3.124-22.627 9.372c-12.497 12.497-12.497 32.758 0 45.255z"/></symbol><symbol viewBox="0 0 32 32" id="search" xmlns="http://www.w3.org/2000/svg"><path d="M27.414 24.586l-5.077-5.077A9.932 9.932 0 0024 14c0-5.514-4.486-10-10-10S4 8.486 4 14s4.486 10 10 10a9.932 9.932 0 005.509-1.663l5.077 5.077a2 2 0 102.828-2.828zM7 14c0-3.86 3.14-7 7-7s7 3.14 7 7-3.14 7-7 7-7-3.14-7-7z"/></symbol></svg>