<?xml version="1.0" encoding="utf-8"?><svg xmlns="http://www.w3.org/2000/svg" xmlns:xlink="http://www.w3.org/1999/xlink"><symbol preserveAspectRatio="xMidYMid" viewBox="0 0 270.56 315.16" id="apple" xmlns="http://www.w3.org/2000/svg"><path d="M213.803 167.03c.442 47.58 41.74 63.413 42.197 63.615-.35 1.116-6.599 22.563-21.757 44.716-13.104 19.153-26.705 38.235-48.13 38.63-21.05.388-27.82-12.483-51.888-12.483-24.061 0-31.582 12.088-51.51 12.871-20.68.783-36.428-20.71-49.64-39.793-27-39.033-47.633-110.3-19.928-158.406 13.763-23.89 38.36-39.017 65.056-39.405 20.307-.387 39.475 13.662 51.889 13.662 12.406 0 35.699-16.895 60.186-14.414 10.25.427 39.026 4.14 57.503 31.186-1.49.923-34.335 20.044-33.978 59.822M174.24 50.199c10.98-13.29 18.369-31.79 16.353-50.199-15.826.636-34.962 10.546-46.314 23.828-10.173 11.763-19.082 30.589-16.678 48.633 17.64 1.365 35.66-8.964 46.64-22.262"/></symbol><symbol viewBox="0 0 390.25 451.12" id="arrow" xmlns="http://www.w3.org/2000/svg"><path d="M41.373 278.627l160 160c12.496 12.497 32.758 12.497 45.255 0l160-160c12.495-12.497 12.495-32.758 0-45.255-12.497-12.497-32.759-12.497-45.256 0L256 338.745V32c0-17.673-14.327-32-32-32-17.673 0-32 14.327-32 32v306.745L86.627 233.372C80.379 227.124 72.189 224 64 224s-16.379 3.124-22.627 9.372c-12.497 12.497-12.497 32.758 0 45.255z"/></symbol><symbol viewBox="0 0 24 24" id="goog-play" xmlns="http://www.w3.org/2000/svg"><path d="M19.076 10.067l-2.092-1.209-2.521 3.096 2.569 3.16 2.043-1.18c.853-.492 1.321-1.181 1.321-1.935s-.467-1.439-1.32-1.932zM5.522 21.351l7.651-9.396-7.554-9.294c-.024-.001-.049-.012-.073-.012-1.163 0-1.944.945-1.944 2.353v14c.002 1.395.773 2.335 1.92 2.349zM16.105 8.354L7.497 3.382l6.322 7.779zm-2.287 4.392l-6.489 7.971 8.825-5.097z"/></symbol><symbol viewBox="0 0 32 32" id="search" xmlns="http://www.w3.org/2000/svg"><path d="M27.414 24.586l-5.077-5.077A9.932 9.932 0 0024 14c0-5.514-4.486-10-10-10S4 8.486 4 14s4.486 10 10 10a9.932 9.932 0 005.509-1.663l5.077 5.077a2 2 0 102.828-2.828zM7 14c0-3.86 3.14-7 7-7s7 3.14 7 7-3.14 7-7 7-7-3.14-7-7z"/></symbol></svg>